<?xml version="1.0" standalone="no"?><!-- Created with ZXing.Net (http://zxingnet.codeplex.com/) --><!DOCTYPE svg PUBLIC "-//W3C//DTD SVG 1.1//EN" "http://www.w3.org/Graphics/SVG/1.1/DTD/svg11.dtd"><svg xmlns="http://www.w3.org/2000/svg" version="1.2" baseProfile="tiny" shape-rendering="crispEdges" viewBox="0 0 200 200" viewport-fill="rgb(255,255,255)" viewport-fill-opacity="1" fill="rgb(0,0,0)" fill-opacity="1" style="background-color:rgb(255,255,255);background-color:rgba(255, 255, 255, 1);"><rect x="12" y="12" width="8" height="176"/><rect x="20" y="20" width="8" height="8"/><rect x="20" y="44" width="16" height="8"/><rect x="20" y="84" width="8" height="8"/><rect x="20" y="100" width="8" height="24"/><rect x="20" y="132" width="8" height="8"/><rect x="20" y="156" width="8" height="16"/><rect x="20" y="180" width="168" height="8"/><rect x="28" y="12" width="8" height="8"/><rect x="28" y="36" width="8" height="16"/><rect x="28" y="60" width="8" height="24"/><rect x="28" y="92" width="8" height="8"/><rect x="28" y="148" width="8" height="8"/><rect x="28" y="172" width="16" height="16"/><rect x="36" y="20" width="8" height="8"/><rect x="36" y="36" width="8" height="8"/><rect x="36" y="68" width="8" height="8"/><rect x="36" y="84" width="8" height="8"/><rect x="36" y="108" width="16" height="16"/><rect x="36" y="140" width="16" height="8"/><rect x="36" y="156" width="8" height="8"/><rect x="44" y="12" width="8" height="8"/><rect x="44" y="28" width="8" height="8"/><rect x="44" y="44" width="8" height="24"/><rect x="44" y="92" width="8" height="8"/><rect x="44" y="132" width="8" height="24"/><rect x="44" y="164" width="32" height="8"/><rect x="52" y="68" width="16" height="16"/><rect x="52" y="100" width="8" height="16"/><rect x="52" y="148" width="16" height="24"/><rect x="60" y="12" width="8" height="8"/><rect x="60" y="36" width="8" height="24"/><rect x="60" y="92" width="16" height="8"/><rect x="60" y="108" width="8" height="24"/><rect x="60" y="140" width="8" height="48"/><rect x="68" y="28" width="16" height="8"/><rect x="68" y="84" width="8" height="16"/><rect x="68" y="108" width="8" height="8"/><rect x="68" y="132" width="8" height="8"/><rect x="68" y="148" width="16" height="8"/><rect x="76" y="12" width="8" height="8"/><rect x="76" y="36" width="8" height="8"/><rect x="76" y="52" width="8" height="16"/><rect x="76" y="76" width="8" height="8"/><rect x="76" y="100" width="8" height="8"/><rect x="76" y="116" width="16" height="16"/><rect x="76" y="156" width="16" height="8"/><rect x="84" y="92" width="8" height="8"/><rect x="84" y="132" width="8" height="16"/><rect x="92" y="12" width="8" height="16"/><rect x="92" y="44" width="8" height="8"/><rect x="92" y="76" width="16" height="16"/><rect x="92" y="100" width="8" height="16"/><rect x="92" y="140" width="24" height="8"/><rect x="92" y="172" width="8" height="16"/><rect x="100" y="28" width="8" height="16"/><rect x="100" y="52" width="16" height="16"/><rect x="100" y="100" width="8" height="8"/><rect x="100" y="116" width="8" height="8"/><rect x="100" y="132" width="8" height="40"/><rect x="108" y="12" width="8" height="8"/><rect x="108" y="28" width="8" height="8"/><rect x="108" y="68" width="8" height="8"/><rect x="108" y="92" width="16" height="8"/><rect x="108" y="124" width="8" height="8"/><rect x="108" y="156" width="16" height="8"/><rect x="116" y="20" width="8" height="8"/><rect x="116" y="36" width="8" height="16"/><rect x="116" y="108" width="16" height="8"/><rect x="116" y="172" width="16" height="16"/><rect x="124" y="12" width="8" height="8"/><rect x="124" y="28" width="16" height="8"/><rect x="124" y="44" width="16" height="24"/><rect x="124" y="84" width="24" height="8"/><rect x="132" y="20" width="8" height="16"/><rect x="132" y="92" width="24" height="8"/><rect x="132" y="124" width="8" height="16"/><rect x="132" y="156" width="32" height="8"/><rect x="140" y="12" width="8" height="16"/><rect x="140" y="60" width="8" height="8"/><rect x="140" y="108" width="8" height="24"/><rect x="140" y="148" width="8" height="40"/><rect x="148" y="36" width="16" height="24"/><rect x="148" y="116" width="40" height="8"/><rect x="156" y="12" width="8" height="48"/><rect x="156" y="76" width="16" height="8"/><rect x="156" y="100" width="8" height="8"/><rect x="156" y="124" width="24" height="8"/><rect x="156" y="140" width="8" height="24"/><rect x="164" y="28" width="16" height="8"/><rect x="164" y="60" width="8" height="24"/><rect x="164" y="108" width="8" height="32"/><rect x="164" y="148" width="8" height="8"/><rect x="172" y="12" width="8" height="32"/><rect x="172" y="60" width="8" height="16"/><rect x="172" y="92" width="8" height="8"/><rect x="172" y="108" width="8" height="24"/><rect x="172" y="164" width="8" height="24"/><rect x="180" y="20" width="8" height="8"/><rect x="180" y="36" width="8" height="8"/><rect x="180" y="52" width="8" height="8"/><rect x="180" y="68" width="8" height="8"/><rect x="180" y="84" width="8" height="8"/><rect x="180" y="100" width="8" height="8"/><rect x="180" y="132" width="8" height="8"/><rect x="180" y="148" width="8" height="8"/><rect x="180" y="164" width="8" height="8"/></svg>