<?xml version="1.0" standalone="no"?><!-- Created with ZXing.Net (http://zxingnet.codeplex.com/) --><!DOCTYPE svg PUBLIC "-//W3C//DTD SVG 1.1//EN" "http://www.w3.org/Graphics/SVG/1.1/DTD/svg11.dtd"><svg xmlns="http://www.w3.org/2000/svg" version="1.2" baseProfile="tiny" shape-rendering="crispEdges" viewBox="0 0 200 200" viewport-fill="rgb(255,255,255)" viewport-fill-opacity="1" fill="rgb(0,0,0)" fill-opacity="1" style="background-color:rgb(255,255,255);background-color:rgba(255, 255, 255, 1);"><rect x="9" y="9" width="7" height="182"/><rect x="16" y="16" width="7" height="7"/><rect x="16" y="37" width="14" height="7"/><rect x="16" y="51" width="28" height="7"/><rect x="16" y="72" width="7" height="7"/><rect x="16" y="86" width="7" height="21"/><rect x="16" y="114" width="7" height="21"/><rect x="16" y="156" width="14" height="7"/><rect x="16" y="170" width="21" height="7"/><rect x="16" y="184" width="175" height="7"/><rect x="23" y="9" width="7" height="7"/><rect x="23" y="30" width="7" height="28"/><rect x="23" y="65" width="7" height="7"/><rect x="23" y="93" width="7" height="7"/><rect x="23" y="107" width="7" height="14"/><rect x="23" y="135" width="14" height="14"/><rect x="30" y="16" width="7" height="7"/><rect x="30" y="30" width="7" height="7"/><rect x="30" y="58" width="7" height="7"/><rect x="30" y="72" width="7" height="7"/><rect x="30" y="86" width="7" height="7"/><rect x="30" y="100" width="21" height="7"/><rect x="30" y="114" width="7" height="7"/><rect x="30" y="128" width="7" height="28"/><rect x="30" y="163" width="7" height="14"/><rect x="37" y="9" width="7" height="7"/><rect x="37" y="23" width="7" height="7"/><rect x="37" y="44" width="7" height="14"/><rect x="37" y="79" width="7" height="7"/><rect x="37" y="93" width="14" height="14"/><rect x="37" y="135" width="28" height="7"/><rect x="37" y="149" width="7" height="21"/><rect x="44" y="30" width="14" height="7"/><rect x="44" y="65" width="7" height="7"/><rect x="44" y="86" width="7" height="21"/><rect x="44" y="114" width="14" height="7"/><rect x="44" y="128" width="7" height="21"/><rect x="44" y="156" width="7" height="14"/><rect x="51" y="9" width="7" height="7"/><rect x="51" y="37" width="7" height="14"/><rect x="51" y="58" width="14" height="7"/><rect x="51" y="107" width="7" height="14"/><rect x="51" y="128" width="14" height="14"/><rect x="51" y="163" width="7" height="7"/><rect x="51" y="177" width="7" height="14"/><rect x="58" y="23" width="14" height="7"/><rect x="58" y="65" width="42" height="7"/><rect x="58" y="79" width="7" height="14"/><rect x="58" y="100" width="21" height="7"/><rect x="58" y="156" width="7" height="7"/><rect x="58" y="170" width="7" height="7"/><rect x="65" y="9" width="7" height="7"/><rect x="65" y="30" width="7" height="7"/><rect x="65" y="44" width="7" height="7"/><rect x="65" y="93" width="7" height="42"/><rect x="65" y="149" width="7" height="7"/><rect x="65" y="163" width="7" height="7"/><rect x="72" y="51" width="7" height="7"/><rect x="72" y="79" width="21" height="7"/><rect x="72" y="121" width="7" height="21"/><rect x="79" y="9" width="7" height="28"/><rect x="79" y="58" width="7" height="28"/><rect x="79" y="121" width="7" height="7"/><rect x="79" y="135" width="7" height="21"/><rect x="79" y="177" width="7" height="14"/><rect x="86" y="16" width="7" height="7"/><rect x="86" y="30" width="7" height="21"/><rect x="86" y="100" width="7" height="7"/><rect x="86" y="114" width="7" height="7"/><rect x="86" y="163" width="21" height="7"/><rect x="93" y="9" width="7" height="7"/><rect x="93" y="37" width="7" height="7"/><rect x="93" y="58" width="7" height="14"/><rect x="93" y="86" width="21" height="7"/><rect x="93" y="107" width="7" height="7"/><rect x="93" y="128" width="14" height="7"/><rect x="93" y="170" width="7" height="7"/><rect x="100" y="23" width="21" height="7"/><rect x="100" y="51" width="7" height="14"/><rect x="100" y="79" width="7" height="14"/><rect x="100" y="121" width="7" height="14"/><rect x="100" y="156" width="7" height="14"/><rect x="107" y="9" width="7" height="7"/><rect x="107" y="30" width="7" height="21"/><rect x="107" y="58" width="7" height="14"/><rect x="107" y="93" width="7" height="21"/><rect x="107" y="170" width="28" height="7"/><rect x="114" y="37" width="14" height="14"/><rect x="114" y="58" width="21" height="7"/><rect x="114" y="100" width="7" height="21"/><rect x="114" y="135" width="7" height="21"/><rect x="114" y="163" width="7" height="28"/><rect x="121" y="9" width="7" height="7"/><rect x="121" y="30" width="7" height="21"/><rect x="121" y="79" width="14" height="7"/><rect x="121" y="93" width="14" height="7"/><rect x="121" y="107" width="7" height="14"/><rect x="121" y="128" width="7" height="7"/><rect x="121" y="142" width="7" height="7"/><rect x="121" y="156" width="14" height="7"/><rect x="128" y="23" width="21" height="7"/><rect x="128" y="44" width="7" height="21"/><rect x="128" y="72" width="7" height="14"/><rect x="128" y="149" width="7" height="42"/><rect x="135" y="9" width="7" height="21"/><rect x="135" y="44" width="14" height="7"/><rect x="135" y="65" width="7" height="14"/><rect x="135" y="86" width="7" height="7"/><rect x="135" y="114" width="7" height="42"/><rect x="142" y="51" width="7" height="7"/><rect x="142" y="93" width="7" height="7"/><rect x="142" y="107" width="35" height="7"/><rect x="142" y="128" width="21" height="7"/><rect x="142" y="163" width="7" height="7"/><rect x="149" y="9" width="7" height="14"/><rect x="149" y="37" width="7" height="7"/><rect x="149" y="65" width="7" height="28"/><rect x="149" y="100" width="14" height="35"/><rect x="149" y="142" width="7" height="21"/><rect x="149" y="170" width="42" height="7"/><rect x="156" y="16" width="7" height="21"/><rect x="156" y="44" width="7" height="14"/><rect x="156" y="93" width="7" height="63"/><rect x="163" y="9" width="7" height="7"/><rect x="163" y="23" width="14" height="7"/><rect x="163" y="37" width="14" height="7"/><rect x="163" y="51" width="7" height="7"/><rect x="163" y="65" width="7" height="14"/><rect x="163" y="93" width="7" height="28"/><rect x="170" y="16" width="7" height="28"/><rect x="170" y="58" width="7" height="14"/><rect x="170" y="79" width="7" height="14"/><rect x="170" y="142" width="7" height="7"/><rect x="170" y="177" width="7" height="14"/><rect x="177" y="9" width="7" height="7"/><rect x="177" y="30" width="14" height="7"/><rect x="177" y="51" width="7" height="7"/><rect x="177" y="65" width="7" height="14"/><rect x="177" y="86" width="7" height="21"/><rect x="177" y="121" width="7" height="7"/><rect x="177" y="135" width="7" height="7"/><rect x="177" y="149" width="7" height="28"/><rect x="184" y="16" width="7" height="7"/><rect x="184" y="44" width="7" height="7"/><rect x="184" y="58" width="7" height="7"/><rect x="184" y="72" width="7" height="7"/><rect x="184" y="86" width="7" height="7"/><rect x="184" y="100" width="7" height="7"/><rect x="184" y="114" width="7" height="7"/><rect x="184" y="128" width="7" height="7"/><rect x="184" y="142" width="7" height="7"/><rect x="184" y="156" width="7" height="7"/></svg>