<?xml version="1.0" standalone="no"?><!-- Created with ZXing.Net (http://zxingnet.codeplex.com/) --><!DOCTYPE svg PUBLIC "-//W3C//DTD SVG 1.1//EN" "http://www.w3.org/Graphics/SVG/1.1/DTD/svg11.dtd"><svg xmlns="http://www.w3.org/2000/svg" version="1.2" baseProfile="tiny" shape-rendering="crispEdges" viewBox="0 0 200 200" viewport-fill="rgb(255,255,255)" viewport-fill-opacity="1" fill="rgb(0,0,0)" fill-opacity="1" style="background-color:rgb(255,255,255);background-color:rgba(255, 255, 255, 1);"><rect x="16" y="16" width="7" height="168"/><rect x="23" y="23" width="7" height="7"/><rect x="23" y="44" width="14" height="7"/><rect x="23" y="58" width="7" height="28"/><rect x="23" y="107" width="7" height="7"/><rect x="23" y="135" width="7" height="7"/><rect x="23" y="149" width="7" height="14"/><rect x="23" y="177" width="161" height="7"/><rect x="30" y="16" width="7" height="7"/><rect x="30" y="37" width="7" height="14"/><rect x="30" y="58" width="7" height="21"/><rect x="30" y="86" width="21" height="7"/><rect x="30" y="100" width="7" height="7"/><rect x="30" y="128" width="28" height="7"/><rect x="30" y="142" width="7" height="14"/><rect x="37" y="23" width="7" height="7"/><rect x="37" y="37" width="21" height="7"/><rect x="37" y="51" width="7" height="21"/><rect x="37" y="79" width="7" height="14"/><rect x="37" y="107" width="14" height="14"/><rect x="37" y="149" width="7" height="35"/><rect x="44" y="16" width="7" height="7"/><rect x="44" y="30" width="7" height="14"/><rect x="44" y="58" width="7" height="7"/><rect x="44" y="121" width="7" height="14"/><rect x="44" y="163" width="7" height="21"/><rect x="51" y="65" width="7" height="14"/><rect x="51" y="93" width="7" height="14"/><rect x="51" y="114" width="7" height="7"/><rect x="51" y="135" width="14" height="7"/><rect x="51" y="149" width="7" height="7"/><rect x="51" y="163" width="7" height="7"/><rect x="58" y="16" width="7" height="7"/><rect x="58" y="44" width="7" height="14"/><rect x="58" y="86" width="14" height="7"/><rect x="58" y="100" width="7" height="14"/><rect x="58" y="121" width="14" height="7"/><rect x="65" y="79" width="7" height="14"/><rect x="65" y="100" width="7" height="7"/><rect x="65" y="114" width="7" height="21"/><rect x="65" y="142" width="7" height="7"/><rect x="65" y="163" width="7" height="7"/><rect x="72" y="16" width="7" height="14"/><rect x="72" y="37" width="7" height="14"/><rect x="72" y="72" width="7" height="14"/><rect x="72" y="93" width="21" height="7"/><rect x="72" y="114" width="7" height="7"/><rect x="72" y="149" width="7" height="7"/><rect x="72" y="170" width="7" height="14"/><rect x="79" y="37" width="21" height="7"/><rect x="79" y="58" width="7" height="14"/><rect x="79" y="86" width="7" height="21"/><rect x="79" y="128" width="7" height="21"/><rect x="79" y="156" width="7" height="14"/><rect x="86" y="16" width="7" height="14"/><rect x="86" y="58" width="7" height="7"/><rect x="86" y="79" width="7" height="21"/><rect x="86" y="114" width="7" height="14"/><rect x="86" y="135" width="14" height="14"/><rect x="86" y="163" width="14" height="7"/><rect x="93" y="30" width="7" height="28"/><rect x="93" y="79" width="7" height="7"/><rect x="93" y="107" width="7" height="14"/><rect x="93" y="149" width="7" height="7"/><rect x="93" y="170" width="7" height="14"/><rect x="100" y="16" width="7" height="7"/><rect x="100" y="44" width="14" height="7"/><rect x="100" y="65" width="28" height="7"/><rect x="100" y="86" width="14" height="14"/><rect x="100" y="121" width="21" height="7"/><rect x="100" y="135" width="7" height="7"/><rect x="107" y="30" width="7" height="7"/><rect x="107" y="72" width="7" height="28"/><rect x="107" y="107" width="7" height="7"/><rect x="107" y="128" width="14" height="7"/><rect x="107" y="142" width="7" height="14"/><rect x="114" y="16" width="7" height="7"/><rect x="114" y="51" width="14" height="7"/><rect x="114" y="72" width="7" height="21"/><rect x="114" y="135" width="7" height="14"/><rect x="114" y="163" width="14" height="7"/><rect x="121" y="23" width="7" height="14"/><rect x="121" y="58" width="7" height="14"/><rect x="121" y="79" width="7" height="7"/><rect x="121" y="93" width="7" height="21"/><rect x="121" y="149" width="7" height="7"/><rect x="121" y="170" width="7" height="14"/><rect x="128" y="16" width="7" height="7"/><rect x="128" y="30" width="7" height="14"/><rect x="128" y="58" width="7" height="7"/><rect x="128" y="86" width="21" height="7"/><rect x="128" y="100" width="7" height="14"/><rect x="128" y="128" width="7" height="7"/><rect x="128" y="142" width="7" height="7"/><rect x="128" y="156" width="7" height="7"/><rect x="135" y="30" width="7" height="7"/><rect x="135" y="44" width="7" height="7"/><rect x="135" y="93" width="7" height="7"/><rect x="135" y="107" width="7" height="7"/><rect x="135" y="121" width="28" height="7"/><rect x="135" y="135" width="35" height="7"/><rect x="135" y="149" width="7" height="7"/><rect x="135" y="163" width="7" height="21"/><rect x="142" y="16" width="7" height="14"/><rect x="142" y="37" width="7" height="7"/><rect x="142" y="51" width="14" height="14"/><rect x="142" y="72" width="7" height="21"/><rect x="142" y="128" width="7" height="14"/><rect x="142" y="163" width="7" height="7"/><rect x="149" y="23" width="7" height="14"/><rect x="149" y="44" width="7" height="42"/><rect x="149" y="100" width="7" height="7"/><rect x="149" y="142" width="7" height="21"/><rect x="156" y="16" width="7" height="7"/><rect x="156" y="37" width="28" height="7"/><rect x="156" y="65" width="7" height="7"/><rect x="156" y="79" width="7" height="7"/><rect x="156" y="114" width="7" height="28"/><rect x="156" y="156" width="7" height="7"/><rect x="163" y="23" width="21" height="7"/><rect x="163" y="51" width="7" height="14"/><rect x="163" y="93" width="7" height="21"/><rect x="163" y="128" width="7" height="14"/><rect x="163" y="163" width="7" height="7"/><rect x="170" y="16" width="7" height="14"/><rect x="170" y="51" width="14" height="7"/><rect x="170" y="72" width="7" height="7"/><rect x="170" y="100" width="7" height="35"/><rect x="170" y="142" width="7" height="7"/><rect x="170" y="156" width="7" height="7"/><rect x="170" y="170" width="7" height="14"/><rect x="177" y="65" width="7" height="7"/><rect x="177" y="79" width="7" height="7"/><rect x="177" y="93" width="7" height="7"/><rect x="177" y="107" width="7" height="7"/><rect x="177" y="121" width="7" height="7"/><rect x="177" y="135" width="7" height="7"/><rect x="177" y="149" width="7" height="7"/><rect x="177" y="163" width="7" height="7"/></svg>